<svg version="1.1" xmlns="http://www.w3.org/2000/svg" xmlns:xlink="http://www.w3.org/1999/xlink" width="108.48331" height="107.42358" viewBox="0,0,108.48331,107.42358"><g transform="translate(-185.7683,-125.10826)"><g data-paper-data="{&quot;isPaintingLayer&quot;:true}" fill-rule="nonzero" stroke-linejoin="miter" stroke-miterlimit="10" stroke-dasharray="" stroke-dashoffset="0" style="mix-blend-mode: normal"><g data-paper-data="{&quot;index&quot;:null}" fill="#949494" stroke="#000000" stroke-width="2"><path d="M215.45624,197.22618c0,0 -4.77607,-3.84424 -7.20167,-11.09865c-1.80229,-5.39023 -1.56217,-13.51433 -1.04569,-18.83477c0.35381,-3.64469 0.17578,-3.93963 0.96648,-6.59672c1.68228,-5.65317 4.65764,-2.3934 7.77886,-2.9894c1.62538,-0.31037 6.6278,2.9405 6.6278,2.9405c0,0 -3.50116,0.1644 7.24001,0.23325c0.43887,0.00281 21.54091,-0.47078 21.97571,-0.47078c4.50321,0 17.33941,-2.13774 17.33941,-2.13774c0,0 2.3067,5.03894 4.48262,9.71385c0.81143,1.74334 1.60468,3.23156 2.25333,4.68416c1.80083,4.0328 1.5651,4.21851 2.69679,6.62759c3.14827,6.70185 -3.49459,18.64127 -3.49459,18.64127z" stroke-linecap="butt"/><path d="M234.63533,161.53523l-0.23753,1.66268c0,0 5.59476,0.64202 8.13973,0.93407c2.24772,0.25793 6.34937,0.72861 6.34937,0.72861l3.32537,-4.27547l-4.03795,4.98805c0,0 -4.77616,8.7766 -5.1374,13.07136c-0.35105,9.37354 8.79967,18.34394 8.79967,18.34394" stroke-linecap="round"/><path d="M222.5215,168.18598c0,0 6.23973,0.3504 8.00911,2.72298c0.94897,1.27248 3.37102,8.06752 2.58871,13.45012c-0.28402,1.95419 -3.97754,10.0884 -8.46709,10.60669c-1.65559,0.19113 -7.33431,-1.22586 -10.76089,-4.83995c-2.77692,-2.92887 -3.58557,-7.70834 -3.45338,-11.01242c0.13327,-3.33107 3.05358,-6.77484 6.30116,-8.77418c2.66459,-1.64043 5.78238,-2.15324 5.78238,-2.15324" stroke-linecap="round"/><path d="M272.63951,181.24992c0,6.42792 -4.945,12.82642 -11.04497,12.82642c-6.09997,0 -11.75755,-6.16096 -11.75755,-12.58889c0,-6.42793 3.9949,-11.16373 10.09486,-11.16373c1.43888,0 4.23865,1.00251 5.49925,1.52997c4.08361,1.70863 7.2084,4.48455 7.2084,9.39624z" stroke-linecap="butt"/></g><g data-paper-data="{&quot;index&quot;:null}" stroke="#000000" stroke-width="2" stroke-linecap="round"><path d="M293.25161,156.79979c0,0 -7.7913,4.58702 -11.60345,5.43885c-2.17482,0.48597 -7.40191,0.64375 -9.86071,-0.3504c-0.36453,-0.14739 -1.34787,-1.47498 -0.24308,-2.88147c0.95153,-1.2114 3.76466,-2.48912 6.20016,-3.03076c5.6626,-1.2593 15.27308,0.78302 15.27308,0.78302" fill="#d8d8d8"/><path d="M275.72107,156.39758l0.61875,6.13542" fill="none"/></g><path d="M216.12689,202.49022c0,0 -0.84089,-9.17181 -1.14934,-12.53602c-0.20783,-2.26672 -0.52177,-5.69093 -0.52177,-5.69093c0,0 1.00364,-4.24769 1.4791,-4.46614c1.08897,-0.5003 2.94876,-2.92644 5.53311,-2.63131c2.06382,0.2357 5.27119,2.42411 6.25508,2.95237c1.73307,0.93052 2.07545,6.43116 2.07545,6.43116l-0.38848,15.24304z" data-paper-data="{&quot;index&quot;:null}" fill="#949494" stroke="#000000" stroke-width="2.5" stroke-linecap="butt"/><g data-paper-data="{&quot;index&quot;:null}"><g><path d="M263.66469,205.53154l-2.90423,-5.17949l4.35077,-2.43956l2.90423,5.17949z" data-paper-data="{&quot;index&quot;:null}" fill="#000000" stroke="none" stroke-width="0" stroke-linecap="butt"/><path d="M268.84345,210.26435l6.96983,8.19023l-0.7151,9.71519l-2.96343,2.23254l-1.47006,0.87902l-9.98739,-0.01503l-3.73757,-1.37268l1.52834,-2.06523l1.47006,-0.87902l1.99116,-1.80468l3.35633,-0.54855l-3.67929,-2.55888l-1.202,-4.57749l-1.91372,-4.61246z" fill="#949494" stroke="#000000" stroke-width="2.5" stroke-linecap="round"/><path d="M258.49062,212.8473l-0.61848,-1.93289l2.61715,-4.86549l3.50784,-3.63267l3.5586,0.17483l2.2675,2.25171l-0.69592,4.48426z" fill="#242424" stroke="#000000" stroke-width="2.5" stroke-linecap="round"/><path d="M264.51485,211.24076l-3.40709,-3.25894l0.36545,-2.59799" fill="none" stroke="#000000" stroke-width="2.5" stroke-linecap="round"/></g><g stroke="none" stroke-linecap="butt"><path d="M267.03039,224.96198l-4.82043,-3.75629l-2.18307,-7.86558l7.48056,-2.26808l8.08383,8.69734l-0.82747,5.73795z" fill="#8c6200" stroke-width="NaN"/><path d="M260.94292,216.09066l-1.22643,-2.89223l7.19636,-2.42881l4.88387,2.32101z" fill="#8c0081" stroke-width="NaN"/><path d="M257.69958,229.39375l1.41363,-2.35206l0.96329,-0.95937l3.4258,-0.53178l3.13198,-1.19351l7.31592,0.32842l-1.39966,5.56302l-11.30478,0.72659z" fill="#8c0081" stroke-width="0"/><g fill="#ffffff" stroke-width="0.5"><path d="M265.63005,215.11573c0.39816,-0.27593 0.71732,-0.46261 1.28038,-0.52048c0.43354,-0.00953 1.04011,0.00228 1.4182,0.28414c0.2684,0.2001 0.32618,0.62737 0.25814,1.09061c-0.87591,0.43936 -1.7144,0.94463 -2.56484,1.4354c0,0 -0.12539,0.07236 -0.10478,0.20085c-1.06239,-0.32395 -1.52296,-1.42526 -0.67371,-2.45786c0,0 0.17602,-0.20955 0.38558,-0.03354c0.00035,0.00029 0.0007,0.00059 0.00105,0.00087zM267.29927,215.44387c0.09817,-0.05666 0.13185,-0.18219 0.07519,-0.28037c-0.05666,-0.09817 -0.18218,-0.13185 -0.28037,-0.07519c-0.09817,0.05666 -0.13185,0.18219 -0.07518,0.28038c0.05666,0.09817 0.18219,0.13185 0.28037,0.07519zM265.83032,216.25208c0.09817,-0.05666 0.13185,-0.18219 0.07519,-0.28037c-0.05666,-0.09817 -0.18219,-0.13185 -0.28038,-0.07518c-0.09817,0.05666 -0.13185,0.18218 -0.07518,0.28037c0.05666,0.09817 0.18218,0.13186 0.28037,0.0752z"/><path d="M264.93227,218.05159c0.05149,-0.02973 0.0996,-0.04674 0.14411,-0.05429c0.02504,-0.11295 0.10534,-0.28836 0.36251,-0.29255c0.38002,-0.00619 0.38621,0.37384 0.38621,0.37384c0.00214,0.22393 -0.01132,0.45039 -0.04857,0.67197c0.05559,-0.00652 0.09564,-0.0017 0.09564,-0.0017c0.69976,0.08692 1.39995,0.10088 2.09982,0.14939c0.35914,-0.59086 0.73883,-1.16799 1.12384,-1.74965c-0.16299,-0.09766 -0.30205,-0.19065 -0.39577,-0.25226c0,0 -0.18224,-0.12037 -0.17917,-0.31677c-0.01229,-0.01832 -0.02346,-0.03881 -0.03321,-0.06175c-0.17999,0.52987 -0.4806,1.00419 -0.77281,1.13207c-0.09844,0.04308 -1.01085,0.02823 -1.11873,0.02722c-0.07009,-0.00066 -0.1387,-0.00421 -0.20575,-0.01049c0.69242,-0.40112 1.37832,-0.80975 2.08517,-1.18077c-0.00622,-0.01859 -0.01161,-0.03855 -0.01598,-0.06c-0.07613,-0.37237 0.29625,-0.4485 0.29625,-0.4485l0.26007,-0.03602c0.41341,0.04054 2.53233,0.55229 1.61604,1.48761c-0.19736,0.20145 -0.51664,0.17416 -0.84555,0.05856c-0.32222,0.49804 -0.63274,0.99647 -0.93655,1.49759c0.08971,0.01234 0.17942,0.02598 0.26912,0.04116c0.48852,0.08268 0.94563,0.25651 1.42314,0.36714c0.15453,-0.18087 0.32646,-0.37425 0.50951,-0.61573c0,0 0.23081,-0.30196 0.53277,-0.07116c0.02998,0.0229 0.05471,0.04653 0.07494,0.07049c0.03081,0.00152 0.06403,0.0067 0.09978,0.01628c0.3671,0.09845 0.26866,0.46555 0.26866,0.46555l-0.05242,0.1807c-0.35098,0.81998 -0.65666,1.24644 -1.14179,1.65825l0.02296,0.01966l-0.48865,0.57068c-0.02835,0.03472 -0.06335,0.06497 -0.10448,0.08871c-0.18181,0.10493 -0.41424,0.04259 -0.51916,-0.13924c-0.05245,-0.0909 -0.0631,-0.19448 -0.03791,-0.2884l0.11659,-0.43475c0.04462,-0.36403 0.13134,-0.63489 0.25076,-0.86627c-0.35651,-0.09918 -0.709,-0.21 -1.07853,-0.27192c-0.19114,-0.03202 -0.38192,-0.05728 -0.57249,-0.07786c-0.33335,0.56294 -0.66126,1.13057 -0.99064,1.70616c-0.07079,0.12372 -0.45494,0.83294 -0.74281,1.33201c0.03981,0.00949 0.08142,0.017 0.12514,0.02134l0.3074,0.22852c0,0 0.18996,0.3292 -0.13924,0.51916c-0.17945,0.10356 -0.31754,0.05283 -0.40602,-0.01474c-0.47654,-0.07712 -0.71637,-0.18906 -0.92336,-0.44712l-0.04875,0.04711l-0.26634,-0.27557c-0.02357,-0.02333 -0.04444,-0.05018 -0.06181,-0.0803c-0.10493,-0.18181 -0.04259,-0.41423 0.13921,-0.51916c0.07275,-0.04197 0.15359,-0.05718 0.23113,-0.04867l0.40237,0.0391l-0.00545,0.05614l0.13389,-0.02014c0.00468,0.05751 0.01572,0.19317 0.02016,0.24766c-0.06141,-0.79648 0.58677,-1.39847 0.94306,-2.105c0.12931,-0.25643 0.26415,-0.50804 0.4035,-0.75609c-0.58628,-0.03462 -1.1726,-0.05578 -1.76302,-0.12524c0,0 -0.00375,-0.00046 -0.01042,-0.00165c-0.02048,0.1039 -0.08403,0.19877 -0.18297,0.25585c-0.18181,0.10493 -0.41424,0.04259 -0.51915,-0.13923c-0.00725,-0.01256 -0.0137,-0.02536 -0.01937,-0.03836l-0.19421,-0.43057l0.1034,-0.04664l-0.00209,-0.01254l0.01902,-0.00316c-0.10098,-0.19016 -0.17024,-0.39185 -0.18499,-0.60145l0.0027,0.08497c0,0 -0.18997,-0.32919 0.13923,-0.51915z"/></g></g></g><path d="M255.04821,178.24113l2.66377,-2.04646l5.3356,-0.49852l4.40159,2.97243l0.78434,6.8104l-3.41934,15.1231l-1.50567,0.52134l-11.03821,-1.6862l1.04477,-17.11121z" data-paper-data="{&quot;index&quot;:null}" fill="#949494" stroke="#000000" stroke-width="2.5" stroke-linecap="round"/><g data-paper-data="{&quot;index&quot;:null}"><g><path d="M212.33575,206.8437l2.5076,-5.27879l4.6047,1.90938l-2.50759,5.27877z" fill="#000000" stroke="none" stroke-width="0" stroke-linecap="butt"/><path d="M197.99909,231.76375l1.85471,-4.21379c0,0 2.71831,-0.86338 4.23995,-1.08715c0.54006,-0.07941 3.25958,0.6482 3.22305,-0.23473c-0.03234,-0.78198 -2.85462,-3.18476 -2.02122,-3.268c0.80177,-0.08009 6.58506,-9.89083 7.70737,-9.62483c2.89293,0.68566 10.24419,1.73344 10.24419,1.73344l-8.11758,15.33512c0,0 -13.23703,2.28018 -15.99047,2.49875c-1.05076,0.08341 -1.13998,-1.13885 -1.13998,-1.13885z" fill="#949494" stroke="#000000" stroke-width="2.5" stroke-linecap="butt"/><path d="M212.01689,213.24275l-0.68033,-3.14554l1.21829,-2.48036l2.34704,-1.16119l3.02052,0.123l6.87201,7.33521z" fill="#242424" stroke="#000000" stroke-width="2.5" stroke-linecap="butt"/><path d="M219.89259,210.23l-0.43348,2.15018l-1.78637,1.18998" fill="none" stroke="#000000" stroke-width="2.5" stroke-linecap="round"/><path d="M207.15417,225.66504l2.6689,5.17138" fill="none" stroke="#000000" stroke-width="2.5" stroke-linecap="round"/></g><g stroke="none" stroke-linecap="butt"><path d="M206.98108,223.21248l4.37017,-6.87855l0.96993,-3.07788l9.78706,2.99206l-8.54055,13.72106z" fill="#8c6200" stroke-width="NaN"/><path d="M211.3523,216.89721l0.96691,-3.26888l9.528,2.47461l-1.84755,3.39836z" fill="#8c0081" stroke-width="NaN"/><path d="M199.00905,232.20187l0.98389,-2.50524l0.78753,-1.09715l3.32464,-1.17136l3.12645,-0.1872l-0.36859,-4.12402l1.99908,-2.24597l5.13429,9.24903z" fill="#8c0081" stroke-width="0"/><g fill="#ffffff" stroke-width="0.5"><path d="M216.51873,218.06515c0.44518,0.1896 0.77175,0.35899 1.10956,0.79482c0.22935,0.35325 0.52818,0.86019 0.47346,1.31471c-0.03884,0.32266 -0.3845,0.58599 -0.82585,0.76354c-0.83218,-0.50172 -1.70315,-0.93925 -2.56751,-1.39398c0,0 -0.12744,-0.06705 -0.22974,0.0148c-0.25715,-1.0409 0.47493,-1.97705 1.81432,-1.79674c0,0 0.27371,0.03963 0.226,0.30154c-0.00009,0.00045 -0.00015,0.00088 -0.00023,0.00131zM217.08152,219.60937c0.0998,0.05251 0.22713,0.01696 0.28446,-0.07939c0.05732,-0.09635 0.02289,-0.217 -0.0769,-0.2695c-0.0998,-0.05251 -0.22714,-0.01695 -0.28446,0.07939c-0.05732,0.09635 -0.02289,0.217 0.0769,0.26951zM215.62324,218.804c0.0998,0.05251 0.22713,0.01696 0.28446,-0.07939c0.05732,-0.09635 0.02287,-0.217 -0.0769,-0.2695c-0.0998,-0.05251 -0.22714,-0.01695 -0.28446,0.07939c-0.05732,0.09635 -0.02288,0.21701 0.0769,0.2695z"/><path d="M213.58571,218.97038c0.05236,0.02754 0.09181,0.05868 0.1211,0.09161c0.11194,-0.03632 0.30684,-0.05852 0.4416,0.15178c0.19915,0.31075 -0.13133,0.50762 -0.13133,0.50762c-0.19549,0.11476 -0.40116,0.21795 -0.61466,0.299c0.03407,0.04262 0.05024,0.07814 0.05024,0.07814c0.28037,0.6218 0.62503,1.20714 0.93921,1.80964c0.70179,-0.00155 1.40198,0.0208 2.10886,0.04526c0.00265,-0.18388 0.01341,-0.34567 0.01973,-0.45416c0,0 0.01277,-0.21126 0.18676,-0.30784c0.00982,-0.01938 0.02211,-0.03897 0.03727,-0.05858c-0.55693,0.11873 -1.12656,0.1098 -1.38776,-0.067c-0.088,-0.05956 -0.54003,-0.82061 -0.59414,-0.91023c-0.03516,-0.05821 -0.06701,-0.11668 -0.09566,-0.17523c0.70507,0.36947 1.41344,0.72973 2.09945,1.1263c0.01315,-0.01451 0.02792,-0.02902 0.04452,-0.04348c0.28809,-0.25078 0.54474,0.01836 0.54474,0.01836l0.16418,0.19662c0.17514,0.36188 0.80598,2.37015 -0.48221,2.0854c-0.27746,-0.06134 -0.41624,-0.33883 -0.48241,-0.66878c-0.60146,-0.01479 -1.19731,-0.01972 -1.7921,-0.01778c0.03491,0.08033 0.06864,0.1613 0.10103,0.24303c0.17645,0.44517 0.25681,0.91045 0.4031,1.36066c0.23756,0.03637 0.49495,0.08077 0.80027,0.11009c0,0 0.38274,0.03825 0.33404,0.40411c-0.00484,0.03632 -0.01297,0.06867 -0.02368,0.09746c0.01437,0.02621 0.02675,0.05626 0.03656,0.09064c0.1007,0.35288 -0.27176,0.45682 -0.27176,0.45682l-0.18536,0.04789c-0.89876,0.1239 -1.42895,0.08666 -2.03778,-0.10622l-0.00555,0.02889l-0.75008,-0.11561c-0.04493,-0.00589 -0.08933,-0.01954 -0.13113,-0.04153c-0.18477,-0.09721 -0.24852,-0.32064 -0.1424,-0.49904c0.05307,-0.08919 0.13854,-0.15026 0.23385,-0.17685l0.44108,-0.12308c0.34233,-0.14686 0.62432,-0.21192 0.88831,-0.23005c-0.09465,-0.3445 -0.17702,-0.69156 -0.31104,-1.02798c-0.0693,-0.17402 -0.14439,-0.34434 -0.22344,-0.51212c-0.66409,0.00875 -1.32959,0.02439 -2.00277,0.04281c-0.14469,0.00397 -0.96313,0.04458 -1.54799,0.05868c0.01194,0.03766 0.02657,0.07584 0.04505,0.11414l-0.04393,0.36919c0,0 -0.19215,0.32302 -0.52674,0.14701c-0.18239,-0.09595 -0.20824,-0.23559 -0.19402,-0.34278c-0.17521,-0.43249 -0.1992,-0.68708 -0.07815,-0.98825l-0.06621,-0.01649l0.10617,-0.35903c0.00847,-0.03124 0.02139,-0.06203 0.03897,-0.09159c0.10613,-0.1784 0.34196,-0.24421 0.52673,-0.14699c0.07392,0.03889 0.12847,0.098 0.16054,0.16631l0.17078,0.35205l-0.05208,0.02382l0.08593,0.10042c-0.0481,0.03288 -0.16157,0.11046 -0.20713,0.14162c0.66791,-0.45265 1.52681,-0.22107 2.32867,-0.28335c0.29103,-0.02259 0.58065,-0.03821 0.86945,-0.04831c-0.26845,-0.50167 -0.54876,-0.99662 -0.78873,-1.5193c0,0 -0.00151,-0.00331 -0.00388,-0.00943c-0.10165,0.03552 -0.21732,0.0309 -0.31787,-0.02199c-0.18477,-0.09721 -0.24854,-0.32064 -0.14241,-0.49903c0.00732,-0.01232 0.01528,-0.02411 0.02379,-0.03535l0.279,-0.37768l0.09367,0.06185l0.00994,-0.00805l0.01247,0.01412c0.11547,-0.17937 0.25722,-0.33835 0.43371,-0.4563l-0.07321,0.04511c0,0 0.19216,-0.32301 0.52672,-0.147z"/></g></g></g><path d="M208.54315,158.91825l0.96692,-7.33424l-20.88077,-0.60822l-1.53441,-13.67848c0,0 5.45076,-3.67731 11.27509,-6.03204c4.13283,-1.67087 8.54376,-1.96302 9.25205,-2.22111c0.9163,-0.33389 7.90157,0.25931 11.21432,3.72747c4.63481,4.85223 5.79606,13.18514 5.81972,13.56674c0.20836,3.36172 -4.73398,6.55676 -4.73398,6.55676c0,0 -1.89909,2.7333 -2.26795,3.72418c-0.4124,1.10785 -0.09039,2.61122 -0.09039,2.61122z" fill="#949494" stroke="#000000" stroke-width="2.5" stroke-linecap="butt"/><path d="M187.6644,137.2806l8.95578,-4.68099l11.28032,-3.17451l-3.66855,9.85507l-3.43844,3.20833l-13.14652,2.15923z" fill="#000000" stroke="#000000" stroke-width="2.5" stroke-linecap="round"/><path d="M205.12399,140.97473l-1.66169,-0.05753" fill="none" stroke="#000000" stroke-width="2.5" stroke-linecap="round"/><path d="M203.60928,143.53668l2.38206,-0.15521" fill="none" stroke="#000000" stroke-width="2.5" stroke-linecap="round"/><path d="M206.62131,145.77997l-1.43252,0.18808" fill="none" stroke="#000000" stroke-width="2.5" stroke-linecap="round"/><path d="M189.94553,150.519l8.21899,-3.99349l9.97834,0.10778l5.73831,-0.98968l5.52558,-1.71005l3.97502,-1.3984c0,0 1.66932,1.82142 1.78085,2.57668c0.08673,0.58735 -2.21816,3.79965 -4.30814,6.1912c-0.84146,0.96288 -1.81611,2.97786 -10.54184,2.57913c-0.98483,-0.045 0.44716,-1.83725 -1.12859,-2.03047c-6.40438,-0.78533 -18.90225,-0.82178 -18.90225,-0.82178" fill="#373737" stroke="#000000" stroke-width="2.5" stroke-linecap="round"/><path d="M201.90054,153.21797l0.9703,-1.17119l1.21186,-1.40461l1.43309,-0.45057l1.16305,1.44529l0.44243,1.90806l-0.99064,2.35864l-2.62054,0.43024l-12.34954,-0.21153l-0.90928,-2.39118z" fill="#000000" stroke="#000000" stroke-width="2.5" stroke-linecap="round"/><path d="M213.57752,157.66656l-0.14698,-2.61944" fill="none" stroke="#000000" stroke-width="2.5" stroke-linecap="round"/><path d="M217.48251,154.71204l-8.57048,0.4163" fill="none" stroke="#000000" stroke-width="2.5" stroke-linecap="round"/><path d="M214.21948,132.25825l0.35244,-3.31516l1.49006,-1.84977l3.19189,3.9132l0.08124,4.51852l-3.6265,1.7758l0.54873,-2.12003l-1.11296,-2.17755z" fill="#151515" stroke="#000000" stroke-width="2.5" stroke-linecap="round"/><path d="M211.28452,134.65408l0.56517,-2.59478l1.22801,-1.14582l1.2198,-0.90844l1.89085,0.30314l2.29988,2.21865l0.90022,1.45718l-1.77674,3.26585l-3.30694,-0.58982z" fill="none" stroke="#000000" stroke-width="2.5" stroke-linecap="round"/><path d="M201.15066,139.16063c-0.91717,-0.39847 -0.5187,-1.31565 -0.5187,-1.31565l0.28132,-0.35085c-0.10414,-1.2911 -0.16214,-2.31962 -0.86301,-3.43077c0,0 -0.51838,-0.85514 0.33676,-1.37353c0.85514,-0.51838 1.37353,0.33676 1.37353,0.33676c0.83191,1.41333 1.01261,2.68252 1.14611,4.30509l-0.44035,1.31024c0,0 -0.39847,0.91717 -1.31565,0.5187z" fill="#54ff00" stroke="none" stroke-width="0.5" stroke-linecap="butt"/><path d="M196.37649,138.1248c0,1.45824 -1.4358,2.64038 -3.20694,2.64038c-1.77114,0 -3.20694,-1.18214 -3.20694,-2.64038c0,-1.45824 1.4358,-2.64038 3.20694,-2.64038c1.77114,0 3.20694,1.18214 3.20694,2.64038z" fill="#54ff00" stroke="#54ff00" stroke-width="1.5" stroke-linecap="butt"/></g></g></svg>