<svg version="1.1" xmlns="http://www.w3.org/2000/svg" xmlns:xlink="http://www.w3.org/1999/xlink" width="303.91046" height="110.37711" viewBox="0,0,303.91046,110.37711"><defs><linearGradient x1="135.28311" y1="135.14395" x2="135.28311" y2="232.87066" gradientUnits="userSpaceOnUse" id="color-1"><stop offset="0" stop-color="#b0b0b0"/><stop offset="1" stop-color="#565e63"/></linearGradient><linearGradient x1="128.61645" y1="128.14395" x2="128.61645" y2="225.87066" gradientUnits="userSpaceOnUse" id="color-2"><stop offset="0" stop-color="#eff0f0"/><stop offset="1" stop-color="#818d94"/></linearGradient><radialGradient cx="147.74561" cy="135.33333" r="6.5" gradientUnits="userSpaceOnUse" id="color-3"><stop offset="0" stop-color="#ffffff"/><stop offset="1" stop-color="#ffffff" stop-opacity="0"/></radialGradient><linearGradient x1="213.94978" y1="134.97728" x2="213.94978" y2="232.70399" gradientUnits="userSpaceOnUse" id="color-4"><stop offset="0" stop-color="#b0b0b0"/><stop offset="1" stop-color="#565e63"/></linearGradient><linearGradient x1="208.61645" y1="128.64395" x2="208.61645" y2="226.37066" gradientUnits="userSpaceOnUse" id="color-5"><stop offset="0" stop-color="#eff0f0"/><stop offset="1" stop-color="#818d94"/></linearGradient><radialGradient cx="226.41228" cy="136" r="6.5" gradientUnits="userSpaceOnUse" id="color-6"><stop offset="0" stop-color="#ffffff"/><stop offset="1" stop-color="#ffffff" stop-opacity="0"/></radialGradient><linearGradient x1="273.56973" y1="197.50646" x2="273.56973" y2="231.00646" gradientUnits="userSpaceOnUse" id="color-7"><stop offset="0" stop-color="#b0b0b0"/><stop offset="1" stop-color="#565e63"/></linearGradient><linearGradient x1="269.90307" y1="192.50646" x2="269.90307" y2="226.00646" gradientUnits="userSpaceOnUse" id="color-8"><stop offset="0" stop-color="#eff0f0"/><stop offset="1" stop-color="#818d94"/></linearGradient><radialGradient cx="380.74561" cy="137" r="6.5" gradientUnits="userSpaceOnUse" id="color-9"><stop offset="0" stop-color="#ffffff"/><stop offset="1" stop-color="#ffffff" stop-opacity="0"/></radialGradient></defs><g transform="translate(-91.05315,-124.62935)"><g data-paper-data="{&quot;isPaintingLayer&quot;:true}" fill-rule="nonzero" stroke-linecap="butt" stroke-linejoin="miter" stroke-miterlimit="10" stroke-dasharray="" stroke-dashoffset="0" style="mix-blend-mode: normal"><g><path d="M101.40857,172.0621c2.12834,-14.48036 13.93036,-28.64281 25.33932,-33.23417c16.39323,-6.59719 34.07184,-2.32147 34.07184,-2.32147l0.16287,17.51396c0,0 -17.15722,-0.17947 -29.43078,4.58404c-7.21752,2.8012 -12.09204,8.29301 -12.54818,13.90704c-0.72576,8.93247 -2.18067,24.5742 6.25098,33.47721c5.1144,5.40032 23.67375,6.58679 23.67375,6.58679l-0.34945,-18.89714l-20.09134,0.46833l0.67687,-19.9385l41.18193,-0.62552l-0.52666,58.92379l-31.46214,0.36307c0,0 -46.0405,1.04714 -36.94902,-60.80743z" fill="url(#color-1)" stroke="#424242" stroke-width="5"/><path d="M94.74191,165.0621c2.12834,-14.48036 13.93036,-28.64281 25.33932,-33.23417c16.39323,-6.59719 34.07184,-2.32147 34.07184,-2.32147l0.16287,17.51396c0,0 -17.15722,-0.17947 -29.43078,4.58404c-7.21752,2.8012 -12.09204,8.29301 -12.54818,13.90704c-0.72576,8.93247 -2.18067,24.5742 6.25098,33.47721c5.1144,5.40032 23.67375,6.58679 23.67375,6.58679l-0.34945,-18.89714l-20.09134,0.46833l0.67687,-19.9385l41.18193,-0.62552l-0.52666,58.92379l-31.46214,0.36307c0,0 -46.0405,1.04714 -36.94902,-60.80743z" fill="url(#color-2)" stroke="#000000" stroke-width="5"/><g stroke="none" stroke-width="0"><path d="M138.16666,137.5c0,-3.58985 2.91015,-6.5 6.5,-6.5c3.58985,0 6.5,2.91015 6.5,6.5c0,3.58985 -2.91015,6.5 -6.5,6.5c-3.58985,0 -6.5,-2.91015 -6.5,-6.5z" fill="url(#color-3)"/><path d="M143.86842,135.5614c0,-0.67012 1.36642,-0.40185 1.7871,-0.85886c0.4689,-0.50939 0.03176,-1.70693 0.77868,-1.70693c0.94851,0 0.48235,0.97698 0.9264,1.7423c0.21934,0.37804 1.63939,0.35495 1.63939,0.82349c0,1.0163 -0.68335,0.41523 -1.54031,0.83071c-0.33792,0.16383 -0.62474,1.73508 -1.02548,1.73508c-0.58941,0 -0.34648,-1.49319 -0.7797,-1.82731c-0.60832,-0.46918 -1.78609,0.08917 -1.78609,-0.73847z" fill="#ffffff"/></g></g><g><path d="M180.07524,171.89543c2.12834,-14.48036 13.93037,-28.64281 25.33932,-33.23417c16.39323,-6.59719 34.07184,-2.32147 34.07184,-2.32147l0.16287,17.51396c0,0 -17.15722,-0.17947 -29.43078,4.58404c-7.21752,2.8012 -12.09205,8.29301 -12.54818,13.90704c-0.72576,8.93247 -2.18067,24.5742 6.25098,33.47721c5.1144,5.40032 23.67375,6.58679 23.67375,6.58679l-0.34945,-18.89714l-20.09134,0.46833l0.67687,-19.9385l41.18193,-0.62552l-0.52666,58.92379l-31.46214,0.36307c0,0 -46.0405,1.04714 -36.94903,-60.80743z" fill="url(#color-4)" stroke="#424242" stroke-width="5"/><path d="M174.74191,165.5621c2.12834,-14.48036 13.93037,-28.64281 25.33932,-33.23417c16.39323,-6.59719 34.07184,-2.32147 34.07184,-2.32147l0.16287,17.51396c0,0 -17.15722,-0.17947 -29.43078,4.58404c-7.21752,2.8012 -12.09205,8.29301 -12.54818,13.90704c-0.72576,8.93247 -2.18067,24.5742 6.25098,33.47721c5.1144,5.40032 23.67375,6.58679 23.67375,6.58679l-0.34945,-18.89714l-20.09134,0.46833l0.67687,-19.9385l41.18193,-0.62552l-0.52666,58.92379l-31.46214,0.36307c0,0 -46.0405,1.04714 -36.94903,-60.80743z" fill="url(#color-5)" stroke="#000000" stroke-width="5"/><g stroke="none" stroke-width="0"><path d="M216.83333,138.16667c0,-3.58985 2.91015,-6.5 6.5,-6.5c3.58985,0 6.5,2.91015 6.5,6.5c0,3.58985 -2.91015,6.5 -6.5,6.5c-3.58985,0 -6.5,-2.91015 -6.5,-6.5z" fill="url(#color-6)"/><path d="M222.53509,136.22807c0,-0.67012 1.36642,-0.40185 1.7871,-0.85886c0.4689,-0.50939 0.03175,-1.70693 0.77868,-1.70693c0.94851,0 0.48235,0.97698 0.9264,1.7423c0.21934,0.37804 1.63939,0.35495 1.63939,0.82349c0,1.0163 -0.68334,0.41523 -1.54031,0.83071c-0.33792,0.16383 -0.62474,1.73508 -1.02548,1.73508c-0.58941,0 -0.34648,-1.49319 -0.7797,-1.82731c-0.60832,-0.46918 -1.78609,0.08917 -1.78609,-0.73847z" fill="#ffffff"/></g></g><g><path d="M255.81973,232.50646l59.15871,-89.89526c0,0 3.44163,-10.91893 15.08018,-10.46827c9.5623,0.37026 7.96255,60.98898 7.96255,60.98898c0,0 8.89752,-13.55192 17.73001,-28.26684c9.54154,-15.89622 15.42469,-32.06616 25.65387,-32.63059c3.92818,-0.21675 10.43369,9.37765 10.43369,9.37765l0.60811,88.38296l-19.7955,0.57503l1.16839,-60.06366l-28.46578,45.52691c0,0 -13.03749,16.28061 -17.13157,16.12172c-9.32076,-0.36175 -12.93935,-11.35818 -12.93935,-11.35818l-0.46738,-47.65283l-36.99593,59.36238z" fill="url(#color-7)" stroke="#424242" stroke-width="5"/><path d="M252.15307,227.50646l59.15871,-89.89526c0,0 3.44163,-10.91893 15.08018,-10.46827c9.5623,0.37026 7.96255,60.98898 7.96255,60.98898c0,0 8.89752,-13.55192 17.73001,-28.26684c9.54154,-15.89622 15.42469,-32.06616 25.65387,-32.63059c3.92818,-0.21675 10.43369,9.37765 10.43369,9.37765l0.60811,88.38296l-19.7955,0.57503l1.16839,-60.06366l-28.46578,45.52691c0,0 -13.03749,16.28061 -17.13157,16.12172c-9.32076,-0.36175 -12.93935,-11.35818 -12.93935,-11.35818l-0.46738,-47.65283l-36.99593,59.36238z" fill="url(#color-8)" stroke="#000000" stroke-width="5"/><g stroke="none" stroke-width="0"><path d="M371.16667,139.16667c0,-3.58985 2.91015,-6.5 6.5,-6.5c3.58985,0 6.5,2.91015 6.5,6.5c0,3.58985 -2.91015,6.5 -6.5,6.5c-3.58985,0 -6.5,-2.91015 -6.5,-6.5z" fill="url(#color-9)"/><path d="M376.86842,137.22807c0,-0.67012 1.36643,-0.40185 1.78711,-0.85886c0.4689,-0.50939 0.03175,-1.70693 0.77868,-1.70693c0.94851,0 0.48236,0.97698 0.9264,1.7423c0.21935,0.37805 1.63939,0.35495 1.63939,0.82349c0,1.0163 -0.68335,0.41523 -1.54031,0.83071c-0.33791,0.16383 -0.62474,1.73508 -1.02548,1.73508c-0.58941,0 -0.34648,-1.49319 -0.77969,-1.82732c-0.60831,-0.46917 -1.7861,0.08917 -1.7861,-0.73847z" fill="#ffffff"/></g></g></g></g></svg>